<mxfile host="app.diagrams.net" agent="Mozilla/5.0 (Windows NT 10.0; Win64; x64) AppleWebKit/537.36 (KHTML, like Gecko) Chrome/139.0.0.0 Safari/537.36" version="28.2.0" pages="2">
  <diagram name="LTE" id="iWgtHmf446mTZc4ntef-">
    <mxGraphModel dx="3011" dy="1813" grid="1" gridSize="10" guides="1" tooltips="1" connect="1" arrows="1" fold="1" page="1" pageScale="1" pageWidth="850" pageHeight="1100" math="0" shadow="0">
      <root>
        <mxCell id="0" />
        <mxCell id="1" parent="0" />
        <mxCell id="jGytHkXesSH2hj34qdEf-2" value="OAM_MODULE_ID" style="swimlane;whiteSpace=wrap;html=1;" parent="1" vertex="1">
          <mxGeometry x="-360" y="-230" width="1140" height="580" as="geometry" />
        </mxCell>
        <mxCell id="nEFYsT-crpDZ1YoU7cJc-28" value="" style="edgeStyle=orthogonalEdgeStyle;rounded=0;orthogonalLoop=1;jettySize=auto;html=1;" parent="jGytHkXesSH2hj34qdEf-2" source="jGytHkXesSH2hj34qdEf-7" target="nEFYsT-crpDZ1YoU7cJc-15" edge="1">
          <mxGeometry relative="1" as="geometry" />
        </mxCell>
        <mxCell id="nEFYsT-crpDZ1YoU7cJc-30" value="" style="edgeStyle=orthogonalEdgeStyle;rounded=0;orthogonalLoop=1;jettySize=auto;html=1;" parent="jGytHkXesSH2hj34qdEf-2" source="nEFYsT-crpDZ1YoU7cJc-15" target="nEFYsT-crpDZ1YoU7cJc-24" edge="1">
          <mxGeometry relative="1" as="geometry" />
        </mxCell>
        <mxCell id="nEFYsT-crpDZ1YoU7cJc-109" value="&lt;font style=&quot;font-size: 10px;&quot;&gt;case: RRC_MODULE_ID&lt;/font&gt;" style="edgeLabel;html=1;align=center;verticalAlign=middle;resizable=0;points=[];" parent="nEFYsT-crpDZ1YoU7cJc-30" vertex="1" connectable="0">
          <mxGeometry x="-0.12" y="1" relative="1" as="geometry">
            <mxPoint as="offset" />
          </mxGeometry>
        </mxCell>
        <mxCell id="nEFYsT-crpDZ1YoU7cJc-15" value="oam_cm_fsm_tbl[][] -&amp;gt; oam_cm_layer_handler" style="rounded=1;whiteSpace=wrap;html=1;" parent="jGytHkXesSH2hj34qdEf-2" vertex="1">
          <mxGeometry x="605" y="170" width="150" height="60" as="geometry" />
        </mxCell>
        <mxCell id="nEFYsT-crpDZ1YoU7cJc-63" value="&lt;span style=&quot;font-weight: 400;&quot;&gt;oam_libxml_init()&lt;/span&gt;" style="swimlane;whiteSpace=wrap;html=1;" parent="jGytHkXesSH2hj34qdEf-2" vertex="1">
          <mxGeometry x="40" y="210" width="300" height="280" as="geometry" />
        </mxCell>
        <mxCell id="nEFYsT-crpDZ1YoU7cJc-61" value="oam_xml_struct_tr196_populate/&lt;div&gt;oam_xml_struct_populate&lt;/div&gt;" style="rounded=1;whiteSpace=wrap;html=1;" parent="nEFYsT-crpDZ1YoU7cJc-63" vertex="1">
          <mxGeometry x="40" y="40" width="200" height="40" as="geometry" />
        </mxCell>
        <mxCell id="nEFYsT-crpDZ1YoU7cJc-68" value="&lt;font style=&quot;font-size: 10px;&quot;&gt;oam_populate_device_specific_x2ap_params ()&lt;/font&gt;" style="swimlane;whiteSpace=wrap;html=1;" parent="nEFYsT-crpDZ1YoU7cJc-63" vertex="1">
          <mxGeometry x="10" y="100" width="285" height="70" as="geometry">
            <mxRectangle x="10" y="100" width="250" height="30" as="alternateBounds" />
          </mxGeometry>
        </mxCell>
        <mxCell id="nEFYsT-crpDZ1YoU7cJc-73" value="Đọc cfg về peer và fill vào biến global&amp;nbsp;&lt;div&gt;&lt;br&gt;&lt;/div&gt;" style="text;html=1;align=center;verticalAlign=middle;resizable=0;points=[];autosize=1;strokeColor=none;fillColor=none;" parent="nEFYsT-crpDZ1YoU7cJc-68" vertex="1">
          <mxGeometry x="20" y="30" width="230" height="40" as="geometry" />
        </mxCell>
        <mxCell id="nEFYsT-crpDZ1YoU7cJc-163" value="2" style="ellipse;whiteSpace=wrap;html=1;aspect=fixed;fillColor=#dae8fc;strokeColor=#6c8ebf;" parent="nEFYsT-crpDZ1YoU7cJc-68" vertex="1">
          <mxGeometry x="255" width="30" height="30" as="geometry" />
        </mxCell>
        <mxCell id="nEFYsT-crpDZ1YoU7cJc-72" value="&lt;font style=&quot;font-size: 10px;&quot;&gt;oam_populate_cell_specific_x2ap_params ()&lt;/font&gt;" style="swimlane;whiteSpace=wrap;html=1;" parent="nEFYsT-crpDZ1YoU7cJc-63" vertex="1">
          <mxGeometry x="10" y="190" width="280" height="70" as="geometry">
            <mxRectangle x="10" y="100" width="250" height="30" as="alternateBounds" />
          </mxGeometry>
        </mxCell>
        <mxCell id="nEFYsT-crpDZ1YoU7cJc-75" value="&lt;span style=&quot;text-wrap-mode: nowrap;&quot;&gt;Đọc cfg về cell + neighbor cell và fill vào biến global&amp;nbsp;&lt;/span&gt;&lt;div style=&quot;text-wrap-mode: nowrap;&quot;&gt;&lt;br&gt;&lt;/div&gt;" style="text;html=1;align=center;verticalAlign=middle;whiteSpace=wrap;rounded=0;" parent="nEFYsT-crpDZ1YoU7cJc-72" vertex="1">
          <mxGeometry x="5" y="30" width="275" height="40" as="geometry" />
        </mxCell>
        <mxCell id="nEFYsT-crpDZ1YoU7cJc-164" value="3" style="ellipse;whiteSpace=wrap;html=1;aspect=fixed;fillColor=#dae8fc;strokeColor=#6c8ebf;" parent="nEFYsT-crpDZ1YoU7cJc-72" vertex="1">
          <mxGeometry x="250" width="30" height="30" as="geometry" />
        </mxCell>
        <mxCell id="nEFYsT-crpDZ1YoU7cJc-93" value="&lt;span style=&quot;font-size: 10px; text-wrap-mode: nowrap;&quot;&gt;global varialble:&lt;/span&gt;&lt;div&gt;&lt;span style=&quot;text-wrap-mode: nowrap;&quot;&gt;&lt;font style=&quot;font-size: 13px; color: rgb(255, 51, 51);&quot;&gt;oam_prov_req&lt;/font&gt;&lt;/span&gt;&lt;/div&gt;" style="shape=cube;whiteSpace=wrap;html=1;boundedLbl=1;backgroundOutline=1;darkOpacity=0.05;darkOpacity2=0.1;" parent="jGytHkXesSH2hj34qdEf-2" vertex="1">
          <mxGeometry x="380" y="290" width="120" height="70" as="geometry" />
        </mxCell>
        <mxCell id="nEFYsT-crpDZ1YoU7cJc-94" value="&lt;font style=&quot;color: rgb(0, 0, 0);&quot;&gt;Read Config&lt;/font&gt;" style="swimlane;horizontal=0;whiteSpace=wrap;html=1;fillColor=#ffe6cc;strokeColor=#d79b00;" parent="jGytHkXesSH2hj34qdEf-2" vertex="1">
          <mxGeometry x="10" y="50" width="350" height="480" as="geometry" />
        </mxCell>
        <mxCell id="nEFYsT-crpDZ1YoU7cJc-143" value="" style="edgeStyle=orthogonalEdgeStyle;rounded=0;orthogonalLoop=1;jettySize=auto;html=1;" parent="nEFYsT-crpDZ1YoU7cJc-94" source="nEFYsT-crpDZ1YoU7cJc-65" target="nEFYsT-crpDZ1YoU7cJc-141" edge="1">
          <mxGeometry relative="1" as="geometry" />
        </mxCell>
        <mxCell id="nEFYsT-crpDZ1YoU7cJc-65" value="oam_control_mgmt.c-&amp;gt; main()" style="rounded=1;whiteSpace=wrap;html=1;fillColor=#d5e8d4;strokeColor=#82b366;" parent="nEFYsT-crpDZ1YoU7cJc-94" vertex="1">
          <mxGeometry x="75" y="15" width="210" height="35" as="geometry" />
        </mxCell>
        <mxCell id="nEFYsT-crpDZ1YoU7cJc-141" value="oam_sim_main" style="rounded=1;whiteSpace=wrap;html=1;" parent="nEFYsT-crpDZ1YoU7cJc-94" vertex="1">
          <mxGeometry x="75" y="90" width="210" height="35" as="geometry" />
        </mxCell>
        <mxCell id="nEFYsT-crpDZ1YoU7cJc-148" value="1" style="ellipse;whiteSpace=wrap;html=1;aspect=fixed;fillColor=#dae8fc;strokeColor=#6c8ebf;" parent="nEFYsT-crpDZ1YoU7cJc-94" vertex="1">
          <mxGeometry x="270" y="200" width="30" height="30" as="geometry" />
        </mxCell>
        <mxCell id="nEFYsT-crpDZ1YoU7cJc-182" value="0" style="ellipse;whiteSpace=wrap;html=1;aspect=fixed;fillColor=#dae8fc;strokeColor=#6c8ebf;" parent="nEFYsT-crpDZ1YoU7cJc-94" vertex="1">
          <mxGeometry x="290" y="92.5" width="30" height="30" as="geometry" />
        </mxCell>
        <mxCell id="nEFYsT-crpDZ1YoU7cJc-95" value="&lt;font style=&quot;color: rgb(0, 0, 0);&quot;&gt;Send Config&lt;/font&gt;" style="swimlane;horizontal=0;whiteSpace=wrap;html=1;fillColor=#ffe6cc;strokeColor=#d79b00;" parent="jGytHkXesSH2hj34qdEf-2" vertex="1">
          <mxGeometry x="520" y="30" width="600" height="410" as="geometry" />
        </mxCell>
        <mxCell id="nEFYsT-crpDZ1YoU7cJc-16" value="oam_rrc_intf_msg_handler" style="rounded=1;whiteSpace=wrap;html=1;" parent="nEFYsT-crpDZ1YoU7cJc-95" vertex="1">
          <mxGeometry x="365" y="30" width="150" height="60" as="geometry" />
        </mxCell>
        <mxCell id="jGytHkXesSH2hj34qdEf-7" value="oam_cm_fsm_process_event" style="rounded=1;whiteSpace=wrap;html=1;" parent="nEFYsT-crpDZ1YoU7cJc-95" vertex="1">
          <mxGeometry x="345" y="140" width="190" height="60" as="geometry" />
        </mxCell>
        <mxCell id="nEFYsT-crpDZ1YoU7cJc-27" value="" style="edgeStyle=orthogonalEdgeStyle;rounded=0;orthogonalLoop=1;jettySize=auto;html=1;" parent="nEFYsT-crpDZ1YoU7cJc-95" source="nEFYsT-crpDZ1YoU7cJc-16" target="jGytHkXesSH2hj34qdEf-7" edge="1">
          <mxGeometry relative="1" as="geometry" />
        </mxCell>
        <mxCell id="nEFYsT-crpDZ1YoU7cJc-108" value="&lt;font style=&quot;font-size: 10px;&quot;&gt;case: X2AP_OAM_INIT_IND&lt;span style=&quot;background-color: light-dark(#ffffff, var(--ge-dark-color, #121212)); color: light-dark(rgb(0, 0, 0), rgb(255, 255, 255));&quot;&gt;&amp;nbsp;&lt;/span&gt;&lt;/font&gt;" style="edgeLabel;html=1;align=center;verticalAlign=middle;resizable=0;points=[];" parent="nEFYsT-crpDZ1YoU7cJc-27" vertex="1" connectable="0">
          <mxGeometry x="-0.2" y="3" relative="1" as="geometry">
            <mxPoint as="offset" />
          </mxGeometry>
        </mxCell>
        <mxCell id="jGytHkXesSH2hj34qdEf-6" value="&lt;div&gt;QvRegister (LayerEntity)&lt;/div&gt;oam_layer_intf_process_msg" style="rounded=1;whiteSpace=wrap;html=1;fillColor=#d5e8d4;strokeColor=#82b366;" parent="nEFYsT-crpDZ1YoU7cJc-95" vertex="1">
          <mxGeometry x="70" y="30" width="180" height="60" as="geometry" />
        </mxCell>
        <mxCell id="nEFYsT-crpDZ1YoU7cJc-26" value="" style="edgeStyle=orthogonalEdgeStyle;rounded=0;orthogonalLoop=1;jettySize=auto;html=1;" parent="nEFYsT-crpDZ1YoU7cJc-95" source="jGytHkXesSH2hj34qdEf-6" target="nEFYsT-crpDZ1YoU7cJc-16" edge="1">
          <mxGeometry relative="1" as="geometry" />
        </mxCell>
        <mxCell id="nEFYsT-crpDZ1YoU7cJc-107" value="&lt;font style=&quot;font-size: 9px;&quot;&gt;case&lt;/font&gt;&lt;div&gt;&lt;font style=&quot;font-size: 8px;&quot;&gt;RRC_MODULE_ID&lt;/font&gt;&lt;/div&gt;" style="edgeLabel;html=1;align=center;verticalAlign=middle;resizable=0;points=[];" parent="nEFYsT-crpDZ1YoU7cJc-26" vertex="1" connectable="0">
          <mxGeometry x="-0.2" y="-3" relative="1" as="geometry">
            <mxPoint as="offset" />
          </mxGeometry>
        </mxCell>
        <mxCell id="nEFYsT-crpDZ1YoU7cJc-24" value="oam_rrc_msg_handler" style="rounded=1;whiteSpace=wrap;html=1;" parent="nEFYsT-crpDZ1YoU7cJc-95" vertex="1">
          <mxGeometry x="100" y="275" width="120" height="60" as="geometry" />
        </mxCell>
        <mxCell id="nEFYsT-crpDZ1YoU7cJc-25" value="oam_x2ap_il_send_x2ap_oam_provision_req&lt;div&gt;&lt;br&gt;&lt;div&gt;(dst = RRC_MODULE_ID)&lt;/div&gt;&lt;/div&gt;" style="rounded=1;whiteSpace=wrap;html=1;" parent="nEFYsT-crpDZ1YoU7cJc-95" vertex="1">
          <mxGeometry x="330" y="265" width="250" height="80" as="geometry" />
        </mxCell>
        <mxCell id="nEFYsT-crpDZ1YoU7cJc-31" value="" style="edgeStyle=orthogonalEdgeStyle;rounded=0;orthogonalLoop=1;jettySize=auto;html=1;" parent="nEFYsT-crpDZ1YoU7cJc-95" source="nEFYsT-crpDZ1YoU7cJc-24" target="nEFYsT-crpDZ1YoU7cJc-25" edge="1">
          <mxGeometry relative="1" as="geometry" />
        </mxCell>
        <mxCell id="nEFYsT-crpDZ1YoU7cJc-111" value="&lt;span style=&quot;font-size: 10px;&quot;&gt;case:&amp;nbsp;&lt;/span&gt;&lt;div&gt;&lt;span style=&quot;font-size: 10px;&quot;&gt;X2AP_OAM_&lt;/span&gt;&lt;/div&gt;&lt;div&gt;&lt;span style=&quot;font-size: 10px;&quot;&gt;INIT_IND&lt;/span&gt;&lt;/div&gt;" style="edgeLabel;html=1;align=center;verticalAlign=middle;resizable=0;points=[];" parent="nEFYsT-crpDZ1YoU7cJc-31" vertex="1" connectable="0">
          <mxGeometry x="-0.1818" y="-2" relative="1" as="geometry">
            <mxPoint as="offset" />
          </mxGeometry>
        </mxCell>
        <mxCell id="nEFYsT-crpDZ1YoU7cJc-173" value="9" style="ellipse;whiteSpace=wrap;html=1;aspect=fixed;fillColor=#dae8fc;strokeColor=#6c8ebf;" parent="nEFYsT-crpDZ1YoU7cJc-95" vertex="1">
          <mxGeometry x="380" y="10" width="30" height="30" as="geometry" />
        </mxCell>
        <mxCell id="nEFYsT-crpDZ1YoU7cJc-174" value="10" style="ellipse;whiteSpace=wrap;html=1;aspect=fixed;fillColor=#dae8fc;strokeColor=#6c8ebf;" parent="nEFYsT-crpDZ1YoU7cJc-95" vertex="1">
          <mxGeometry x="520" y="130" width="30" height="30" as="geometry" />
        </mxCell>
        <mxCell id="nEFYsT-crpDZ1YoU7cJc-175" value="11" style="ellipse;whiteSpace=wrap;html=1;aspect=fixed;fillColor=#dae8fc;strokeColor=#6c8ebf;" parent="nEFYsT-crpDZ1YoU7cJc-95" vertex="1">
          <mxGeometry x="210" y="120" width="30" height="30" as="geometry" />
        </mxCell>
        <mxCell id="nEFYsT-crpDZ1YoU7cJc-177" value="13" style="ellipse;whiteSpace=wrap;html=1;aspect=fixed;fillColor=#dae8fc;strokeColor=#6c8ebf;" parent="nEFYsT-crpDZ1YoU7cJc-95" vertex="1">
          <mxGeometry x="330" y="250" width="30" height="30" as="geometry" />
        </mxCell>
        <mxCell id="nEFYsT-crpDZ1YoU7cJc-96" value="" style="endArrow=none;dashed=1;html=1;rounded=0;exitX=1;exitY=0.75;exitDx=0;exitDy=0;entryX=0.024;entryY=0.633;entryDx=0;entryDy=0;entryPerimeter=0;" parent="jGytHkXesSH2hj34qdEf-2" source="nEFYsT-crpDZ1YoU7cJc-94" target="nEFYsT-crpDZ1YoU7cJc-93" edge="1">
          <mxGeometry width="50" height="50" relative="1" as="geometry">
            <mxPoint x="380" y="435" as="sourcePoint" />
            <mxPoint x="430" y="385" as="targetPoint" />
          </mxGeometry>
        </mxCell>
        <mxCell id="nEFYsT-crpDZ1YoU7cJc-97" value="" style="endArrow=none;dashed=1;html=1;rounded=0;exitX=0;exitY=0;exitDx=120;exitDy=45;exitPerimeter=0;entryX=0;entryY=0.75;entryDx=0;entryDy=0;" parent="jGytHkXesSH2hj34qdEf-2" source="nEFYsT-crpDZ1YoU7cJc-93" target="nEFYsT-crpDZ1YoU7cJc-95" edge="1">
          <mxGeometry width="50" height="50" relative="1" as="geometry">
            <mxPoint x="380" y="435" as="sourcePoint" />
            <mxPoint x="430" y="385" as="targetPoint" />
          </mxGeometry>
        </mxCell>
        <mxCell id="nEFYsT-crpDZ1YoU7cJc-145" style="edgeStyle=orthogonalEdgeStyle;rounded=0;orthogonalLoop=1;jettySize=auto;html=1;entryX=0.5;entryY=0;entryDx=0;entryDy=0;" parent="jGytHkXesSH2hj34qdEf-2" source="nEFYsT-crpDZ1YoU7cJc-141" target="nEFYsT-crpDZ1YoU7cJc-63" edge="1">
          <mxGeometry relative="1" as="geometry" />
        </mxCell>
        <mxCell id="jGytHkXesSH2hj34qdEf-3" value="RRC_X2AP_MODULE_ID" style="swimlane;whiteSpace=wrap;html=1;" parent="1" vertex="1">
          <mxGeometry x="-120" y="630" width="780" height="620" as="geometry" />
        </mxCell>
        <mxCell id="nEFYsT-crpDZ1YoU7cJc-43" value="" style="edgeStyle=orthogonalEdgeStyle;rounded=0;orthogonalLoop=1;jettySize=auto;html=1;" parent="jGytHkXesSH2hj34qdEf-3" source="nEFYsT-crpDZ1YoU7cJc-4" target="nEFYsT-crpDZ1YoU7cJc-6" edge="1">
          <mxGeometry relative="1" as="geometry" />
        </mxCell>
        <mxCell id="nEFYsT-crpDZ1YoU7cJc-4" value="x2ap_process_init_timer" style="rounded=1;whiteSpace=wrap;html=1;" parent="jGytHkXesSH2hj34qdEf-3" vertex="1">
          <mxGeometry x="70" y="140" width="160" height="55" as="geometry" />
        </mxCell>
        <mxCell id="nEFYsT-crpDZ1YoU7cJc-42" value="" style="edgeStyle=orthogonalEdgeStyle;rounded=0;orthogonalLoop=1;jettySize=auto;html=1;" parent="jGytHkXesSH2hj34qdEf-3" source="nEFYsT-crpDZ1YoU7cJc-3" target="nEFYsT-crpDZ1YoU7cJc-4" edge="1">
          <mxGeometry relative="1" as="geometry" />
        </mxCell>
        <mxCell id="nEFYsT-crpDZ1YoU7cJc-3" value="x2ap_init" style="rounded=1;whiteSpace=wrap;html=1;" parent="jGytHkXesSH2hj34qdEf-3" vertex="1">
          <mxGeometry x="90" y="220" width="120" height="60" as="geometry" />
        </mxCell>
        <mxCell id="nEFYsT-crpDZ1YoU7cJc-6" value="rrc_send_message&lt;div&gt;&lt;font style=&quot;font-size: 10px;&quot;&gt;(src = RRC_X2AP_MODULE_ID,&lt;/font&gt;&lt;/div&gt;&lt;div&gt;&lt;font style=&quot;font-size: 10px;&quot;&gt;&amp;nbsp;dst = RRC_OAM_MODULE_ID,&amp;nbsp;&lt;/font&gt;&lt;/div&gt;&lt;div&gt;&lt;font style=&quot;font-size: 10px;&quot;&gt;msg_api = X2AP_OAM_INIT_IND)&lt;/font&gt;&lt;/div&gt;" style="rounded=1;whiteSpace=wrap;html=1;" parent="jGytHkXesSH2hj34qdEf-3" vertex="1">
          <mxGeometry x="40" y="50" width="220" height="65" as="geometry" />
        </mxCell>
        <mxCell id="nEFYsT-crpDZ1YoU7cJc-84" value="" style="edgeStyle=orthogonalEdgeStyle;rounded=0;orthogonalLoop=1;jettySize=auto;html=1;" parent="jGytHkXesSH2hj34qdEf-3" source="nEFYsT-crpDZ1YoU7cJc-12" target="nEFYsT-crpDZ1YoU7cJc-11" edge="1">
          <mxGeometry relative="1" as="geometry" />
        </mxCell>
        <mxCell id="7GoscIbdtp-0AamT8vIT-3" value="case: RRC_OAM_MODULE_ID" style="edgeLabel;html=1;align=center;verticalAlign=middle;resizable=0;points=[];" parent="nEFYsT-crpDZ1YoU7cJc-84" vertex="1" connectable="0">
          <mxGeometry x="-0.6193" y="1" relative="1" as="geometry">
            <mxPoint as="offset" />
          </mxGeometry>
        </mxCell>
        <mxCell id="nEFYsT-crpDZ1YoU7cJc-12" value="&lt;div&gt;X2apEntity&lt;/div&gt;x2ap_process_msg" style="rounded=1;whiteSpace=wrap;html=1;" parent="jGytHkXesSH2hj34qdEf-3" vertex="1">
          <mxGeometry x="460" y="40" width="120" height="60" as="geometry" />
        </mxCell>
        <mxCell id="nEFYsT-crpDZ1YoU7cJc-85" style="edgeStyle=orthogonalEdgeStyle;rounded=0;orthogonalLoop=1;jettySize=auto;html=1;entryX=0.5;entryY=0;entryDx=0;entryDy=0;" parent="jGytHkXesSH2hj34qdEf-3" source="nEFYsT-crpDZ1YoU7cJc-11" target="nEFYsT-crpDZ1YoU7cJc-83" edge="1">
          <mxGeometry relative="1" as="geometry" />
        </mxCell>
        <mxCell id="7GoscIbdtp-0AamT8vIT-4" value="case: X2AP_OAM_PROVISION_REQ" style="edgeLabel;html=1;align=center;verticalAlign=middle;resizable=0;points=[];" parent="nEFYsT-crpDZ1YoU7cJc-85" vertex="1" connectable="0">
          <mxGeometry x="-0.4289" relative="1" as="geometry">
            <mxPoint as="offset" />
          </mxGeometry>
        </mxCell>
        <mxCell id="nEFYsT-crpDZ1YoU7cJc-11" value="x2ap_process_oam_messages" style="rounded=1;whiteSpace=wrap;html=1;" parent="jGytHkXesSH2hj34qdEf-3" vertex="1">
          <mxGeometry x="425" y="140" width="190" height="60" as="geometry" />
        </mxCell>
        <mxCell id="nEFYsT-crpDZ1YoU7cJc-103" value="" style="edgeStyle=orthogonalEdgeStyle;rounded=0;orthogonalLoop=1;jettySize=auto;html=1;" parent="jGytHkXesSH2hj34qdEf-3" source="nEFYsT-crpDZ1YoU7cJc-83" target="nEFYsT-crpDZ1YoU7cJc-101" edge="1">
          <mxGeometry relative="1" as="geometry" />
        </mxCell>
        <mxCell id="4SOa410NmmghQBkVjJKv-9" value="cập nhập thông tin về NC + P" style="edgeLabel;html=1;align=center;verticalAlign=middle;resizable=0;points=[];" parent="nEFYsT-crpDZ1YoU7cJc-103" vertex="1" connectable="0">
          <mxGeometry x="0.0268" relative="1" as="geometry">
            <mxPoint as="offset" />
          </mxGeometry>
        </mxCell>
        <mxCell id="nEFYsT-crpDZ1YoU7cJc-83" value="&lt;span style=&quot;font-weight: 400;&quot;&gt;x2ap_process_oam_prov_req ()&lt;/span&gt;" style="swimlane;whiteSpace=wrap;html=1;" parent="jGytHkXesSH2hj34qdEf-3" vertex="1">
          <mxGeometry x="327.5" y="245" width="385" height="215" as="geometry" />
        </mxCell>
        <mxCell id="7GoscIbdtp-0AamT8vIT-5" style="edgeStyle=orthogonalEdgeStyle;rounded=0;orthogonalLoop=1;jettySize=auto;html=1;" parent="nEFYsT-crpDZ1YoU7cJc-83" source="nEFYsT-crpDZ1YoU7cJc-88" edge="1">
          <mxGeometry relative="1" as="geometry">
            <mxPoint x="552.5" y="-528.7037150065105" as="targetPoint" />
          </mxGeometry>
        </mxCell>
        <mxCell id="7GoscIbdtp-0AamT8vIT-7" value="gửi RESPONSE cho OAM" style="edgeLabel;html=1;align=center;verticalAlign=middle;resizable=0;points=[];" parent="7GoscIbdtp-0AamT8vIT-5" vertex="1" connectable="0">
          <mxGeometry x="-0.7682" y="1" relative="1" as="geometry">
            <mxPoint as="offset" />
          </mxGeometry>
        </mxCell>
        <mxCell id="nEFYsT-crpDZ1YoU7cJc-88" value="- fill peer enb context -&amp;gt; set state thành IDLE -&amp;gt; cần luồng&amp;nbsp;&lt;span style=&quot;background-color: transparent; color: light-dark(rgb(0, 0, 0), rgb(255, 255, 255));&quot;&gt;khác (vd:&lt;/span&gt;&lt;div&gt;&lt;span style=&quot;background-color: transparent; color: light-dark(rgb(0, 0, 0), rgb(255, 255, 255));&quot;&gt;&amp;nbsp;2 trạm khởi tạo kết nối,...) để&amp;nbsp;&lt;/span&gt;&lt;span style=&quot;background-color: transparent; color: light-dark(rgb(0, 0, 0), rgb(255, 255, 255));&quot;&gt;chuyển x2setup_state sang ACTIVE&lt;/span&gt;&lt;div&gt;&lt;div&gt;&lt;br&gt;- duyệt qua các cell mà enb đang quản lý&amp;nbsp;và fill thông tin&lt;br&gt;qua hàm x2ap_oam_populate_serverd_cell_info ()&lt;br&gt;&lt;br&gt;- trong từng cell đang quản lý, fill thông tin từng NC vào NCRT&amp;nbsp;&lt;br&gt;qua hàm&amp;nbsp;x2ap_upd_neighbour_cell_info () -&amp;gt; set cho các NC&lt;div&gt;&lt;span style=&quot;background-color: transparent; color: light-dark(rgb(0, 0, 0), rgb(255, 255, 255));&quot;&gt;đó trạng thái INACTIVE -&amp;gt; cần 1 số luồng khác để chuyển&amp;nbsp;&lt;/span&gt;&lt;div&gt;sang ACTIVE&lt;/div&gt;&lt;/div&gt;&lt;/div&gt;&lt;/div&gt;&lt;/div&gt;&lt;div&gt;&lt;br&gt;&lt;/div&gt;&lt;div&gt;- gửi RESP lại cho OAM&lt;/div&gt;" style="text;align=left;verticalAlign=middle;resizable=0;points=[];autosize=1;strokeColor=none;fillColor=none;html=1;" parent="nEFYsT-crpDZ1YoU7cJc-83" vertex="1">
          <mxGeometry x="5" y="25" width="380" height="190" as="geometry" />
        </mxCell>
        <mxCell id="nEFYsT-crpDZ1YoU7cJc-180" value="16" style="ellipse;whiteSpace=wrap;html=1;aspect=fixed;fillColor=#dae8fc;strokeColor=#6c8ebf;" parent="nEFYsT-crpDZ1YoU7cJc-83" vertex="1">
          <mxGeometry x="355" y="-20" width="30" height="30" as="geometry" />
        </mxCell>
        <mxCell id="nEFYsT-crpDZ1YoU7cJc-100" value="" style="edgeStyle=orthogonalEdgeStyle;rounded=0;orthogonalLoop=1;jettySize=auto;html=1;" parent="jGytHkXesSH2hj34qdEf-3" source="nEFYsT-crpDZ1YoU7cJc-99" target="nEFYsT-crpDZ1YoU7cJc-3" edge="1">
          <mxGeometry relative="1" as="geometry" />
        </mxCell>
        <mxCell id="nEFYsT-crpDZ1YoU7cJc-99" value="Register (QMANIFEST X2apEntity)" style="ellipse;whiteSpace=wrap;html=1;fillColor=#d5e8d4;strokeColor=#82b366;" parent="jGytHkXesSH2hj34qdEf-3" vertex="1">
          <mxGeometry x="65" y="310" width="170" height="70" as="geometry" />
        </mxCell>
        <mxCell id="nEFYsT-crpDZ1YoU7cJc-101" value="biến ctx: p_x2ap_gb_ctx" style="shape=cube;whiteSpace=wrap;html=1;boundedLbl=1;backgroundOutline=1;darkOpacity=0.05;darkOpacity2=0.1;fillColor=#f8cecc;strokeColor=#b85450;" parent="jGytHkXesSH2hj34qdEf-3" vertex="1">
          <mxGeometry x="462.5" y="540" width="115" height="70" as="geometry" />
        </mxCell>
        <mxCell id="nEFYsT-crpDZ1YoU7cJc-178" value="14" style="ellipse;whiteSpace=wrap;html=1;aspect=fixed;fillColor=#dae8fc;strokeColor=#6c8ebf;" parent="jGytHkXesSH2hj34qdEf-3" vertex="1">
          <mxGeometry x="562.5" y="30" width="30" height="30" as="geometry" />
        </mxCell>
        <mxCell id="nEFYsT-crpDZ1YoU7cJc-179" value="15" style="ellipse;whiteSpace=wrap;html=1;aspect=fixed;fillColor=#dae8fc;strokeColor=#6c8ebf;" parent="jGytHkXesSH2hj34qdEf-3" vertex="1">
          <mxGeometry x="610" y="130" width="30" height="30" as="geometry" />
        </mxCell>
        <mxCell id="nEFYsT-crpDZ1YoU7cJc-181" value="17" style="ellipse;whiteSpace=wrap;html=1;aspect=fixed;fillColor=#dae8fc;strokeColor=#6c8ebf;" parent="jGytHkXesSH2hj34qdEf-3" vertex="1">
          <mxGeometry x="580" y="450" width="30" height="30" as="geometry" />
        </mxCell>
        <mxCell id="nEFYsT-crpDZ1YoU7cJc-2" value="RRC_MODULE_ID" style="swimlane;whiteSpace=wrap;html=1;" parent="1" vertex="1">
          <mxGeometry x="340" y="430" width="385" height="130" as="geometry" />
        </mxCell>
        <mxCell id="nEFYsT-crpDZ1YoU7cJc-33" value="" style="edgeStyle=orthogonalEdgeStyle;rounded=0;orthogonalLoop=1;jettySize=auto;html=1;" parent="nEFYsT-crpDZ1YoU7cJc-2" source="nEFYsT-crpDZ1YoU7cJc-8" target="nEFYsT-crpDZ1YoU7cJc-10" edge="1">
          <mxGeometry relative="1" as="geometry" />
        </mxCell>
        <mxCell id="nEFYsT-crpDZ1YoU7cJc-8" value="s_receive" style="rounded=1;whiteSpace=wrap;html=1;" parent="nEFYsT-crpDZ1YoU7cJc-2" vertex="1">
          <mxGeometry x="15" y="40" width="125" height="20" as="geometry" />
        </mxCell>
        <mxCell id="nEFYsT-crpDZ1YoU7cJc-10" value="s_send" style="rounded=1;whiteSpace=wrap;html=1;" parent="nEFYsT-crpDZ1YoU7cJc-2" vertex="1">
          <mxGeometry x="15" y="90" width="125" height="20" as="geometry" />
        </mxCell>
        <mxCell id="nEFYsT-crpDZ1YoU7cJc-38" value="lấy api và nếu thấy bản tin là X2AP_PROV_REQ thì convert dest sang RRC_X2AP_MODULE_ID, còn nếu là bản tin PROV khác thì chuyển sang OAMH&lt;div&gt;&lt;br&gt;&lt;/div&gt;" style="text;html=1;align=left;verticalAlign=middle;whiteSpace=wrap;rounded=0;" parent="nEFYsT-crpDZ1YoU7cJc-2" vertex="1">
          <mxGeometry x="150" y="60" width="235" height="30" as="geometry" />
        </mxCell>
        <mxCell id="nEFYsT-crpDZ1YoU7cJc-34" style="edgeStyle=orthogonalEdgeStyle;rounded=0;orthogonalLoop=1;jettySize=auto;html=1;" parent="1" source="nEFYsT-crpDZ1YoU7cJc-10" target="nEFYsT-crpDZ1YoU7cJc-12" edge="1">
          <mxGeometry relative="1" as="geometry" />
        </mxCell>
        <mxCell id="nEFYsT-crpDZ1YoU7cJc-78" style="edgeStyle=orthogonalEdgeStyle;rounded=0;orthogonalLoop=1;jettySize=auto;html=1;entryX=0;entryY=0.5;entryDx=0;entryDy=0;" parent="1" source="nEFYsT-crpDZ1YoU7cJc-76" target="jGytHkXesSH2hj34qdEf-6" edge="1">
          <mxGeometry relative="1" as="geometry" />
        </mxCell>
        <mxCell id="nEFYsT-crpDZ1YoU7cJc-76" value="CSPL.H" style="swimlane;whiteSpace=wrap;html=1;" parent="1" vertex="1">
          <mxGeometry x="-120" y="460" width="290" height="80" as="geometry" />
        </mxCell>
        <mxCell id="nEFYsT-crpDZ1YoU7cJc-106" value="qvSend()&lt;div&gt;đóng gói lại header với src = RRC_MODULE_ID&lt;/div&gt;" style="text;html=1;align=center;verticalAlign=middle;resizable=0;points=[];autosize=1;strokeColor=none;fillColor=none;" parent="nEFYsT-crpDZ1YoU7cJc-76" vertex="1">
          <mxGeometry y="25" width="280" height="40" as="geometry" />
        </mxCell>
        <mxCell id="nEFYsT-crpDZ1YoU7cJc-77" style="edgeStyle=orthogonalEdgeStyle;rounded=0;orthogonalLoop=1;jettySize=auto;html=1;entryX=0.5;entryY=1;entryDx=0;entryDy=0;" parent="1" source="nEFYsT-crpDZ1YoU7cJc-6" target="nEFYsT-crpDZ1YoU7cJc-76" edge="1">
          <mxGeometry relative="1" as="geometry" />
        </mxCell>
        <mxCell id="nEFYsT-crpDZ1YoU7cJc-80" value="LTE - LUỒNG GỬI PROVISION CHỨA THÔNG TIN PEER + NB CELL" style="shape=parallelogram;perimeter=parallelogramPerimeter;whiteSpace=wrap;html=1;fixedSize=1;fillColor=#f8cecc;strokeColor=#b85450;" parent="1" vertex="1">
          <mxGeometry x="-360" y="-270" width="440" height="30" as="geometry" />
        </mxCell>
        <mxCell id="nEFYsT-crpDZ1YoU7cJc-110" style="edgeStyle=orthogonalEdgeStyle;rounded=0;orthogonalLoop=1;jettySize=auto;html=1;entryX=0.5;entryY=0;entryDx=0;entryDy=0;" parent="1" source="nEFYsT-crpDZ1YoU7cJc-25" target="nEFYsT-crpDZ1YoU7cJc-8" edge="1">
          <mxGeometry relative="1" as="geometry">
            <Array as="points">
              <mxPoint x="610" y="400" />
              <mxPoint x="418" y="400" />
            </Array>
          </mxGeometry>
        </mxCell>
        <mxCell id="nEFYsT-crpDZ1YoU7cJc-112" value="sctp" style="edgeLabel;html=1;align=center;verticalAlign=middle;resizable=0;points=[];" parent="nEFYsT-crpDZ1YoU7cJc-110" vertex="1" connectable="0">
          <mxGeometry x="-0.3989" relative="1" as="geometry">
            <mxPoint as="offset" />
          </mxGeometry>
        </mxCell>
        <mxCell id="nEFYsT-crpDZ1YoU7cJc-161" value="&lt;div style=&quot;line-height: 130%;&quot;&gt;&lt;ol style=&quot;line-height: 120%;&quot;&gt;&lt;li&gt;Tạo cấu trúc dữ liệu từ thông tin trong xml&lt;/li&gt;&lt;li&gt;Đọc và gán các giá trị peer (numPeereNB, IPAddr, Port,....)&lt;/li&gt;&lt;li&gt;Đọc và gán các giá trị cho từng cell (prach, pci, cell_id, tac, plmn, FDD/TDD, anten info,&lt;span style=&quot;background-color: transparent; color: light-dark(rgb(0, 0, 0), rgb(255, 255, 255));&quot;&gt;num_neigh_cell)&amp;nbsp; + giá trị cho các NC trong cell (plmn, cid, pid, arfcn, ..) và xử lý populate data cho trường hợp InterRAT/ IntraRAT&amp;nbsp;&lt;/span&gt;&lt;/li&gt;&lt;li&gt;Tại RRC_X2AP khi đăng kí X2apEntity sẽ vào hàm x2ap_init&lt;/li&gt;&lt;li&gt;gọi hàm khởi tạo x2ap search tree&amp;nbsp; (ip, enb_id, nbr_ecgi, ipv6)---&amp;gt; khởi tạo timer (gửi INIT_IND) sau đó set state sang WF_PROV&lt;/li&gt;&lt;li&gt;fill header cho msg với api =&amp;nbsp;&lt;span style=&quot;font-size: 10px; text-align: center;&quot;&gt;X2AP_OAM_INIT_IND&lt;/span&gt;&lt;/li&gt;&lt;li&gt;gửi msg cho OAM&lt;/li&gt;&lt;li&gt;Đăng ký LayerEntity -&amp;gt; khi có msg đến OAM thì vào hàm&amp;nbsp;&lt;span style=&quot;text-align: center;&quot;&gt;oam_layer_intf_process_ms() để xử lý -&amp;gt; lọc theo src_id để gọi hàm tiếp theo&lt;/span&gt;&lt;/li&gt;&lt;li&gt;dựa trên API ( X2AP_INIT_IND)-&amp;gt; set lại event = OAM_CM_EV_LAYER_REQ và gọi hàm sau&amp;nbsp;&lt;/li&gt;&lt;li&gt;Kiếm tra tính hợp lệ của event và state -&amp;gt; gọi hàm trong fsm_tb&lt;/li&gt;&lt;li&gt;dựa trển SRC_ID để gọi hàm tiếp theo&lt;/li&gt;&lt;li&gt;dựa trên API (X2_INIT) -&amp;gt; gửi PROV_REQ cho X2AP -&amp;gt; nếu gửi thành công --&amp;gt; chuyển state sang WF_RES&lt;/li&gt;&lt;li&gt;fill các thông tin từ struct x2ap_oam_provision_req + header vào 1 buffer và gửi đi&lt;/li&gt;&lt;li&gt;khi có msg đến X2apEntity thì gọi hàm process_msg -&amp;gt;&amp;nbsp; lọc theo SRC_ID (RRC_OAM_MODULE_ID) và nếu có SON thì bỏ qua msg này, nếu không thì gọi hàm tiếp theo để xử lý&lt;/li&gt;&lt;li&gt;dựa theo API_ID để gọi hàm tiếp theo&lt;/li&gt;&lt;li&gt;-&lt;/li&gt;&lt;/ol&gt;&lt;div&gt;&lt;/div&gt;&lt;/div&gt;" style="rounded=1;whiteSpace=wrap;html=1;align=left;fillColor=#d5e8d4;strokeColor=#82b366;" parent="1" vertex="1">
          <mxGeometry x="-865" y="380" width="635" height="290" as="geometry" />
        </mxCell>
        <mxCell id="nEFYsT-crpDZ1YoU7cJc-168" value="4" style="ellipse;whiteSpace=wrap;html=1;aspect=fixed;fillColor=#dae8fc;strokeColor=#6c8ebf;" parent="1" vertex="1">
          <mxGeometry x="130" y="940" width="30" height="30" as="geometry" />
        </mxCell>
        <mxCell id="nEFYsT-crpDZ1YoU7cJc-169" value="5" style="ellipse;whiteSpace=wrap;html=1;aspect=fixed;fillColor=#dae8fc;strokeColor=#6c8ebf;" parent="1" vertex="1">
          <mxGeometry x="130" y="850" width="30" height="30" as="geometry" />
        </mxCell>
        <mxCell id="nEFYsT-crpDZ1YoU7cJc-170" value="6" style="ellipse;whiteSpace=wrap;html=1;aspect=fixed;fillColor=#dae8fc;strokeColor=#6c8ebf;" parent="1" vertex="1">
          <mxGeometry x="120" y="770" width="30" height="30" as="geometry" />
        </mxCell>
        <mxCell id="nEFYsT-crpDZ1YoU7cJc-171" value="7" style="ellipse;whiteSpace=wrap;html=1;aspect=fixed;fillColor=#dae8fc;strokeColor=#6c8ebf;" parent="1" vertex="1">
          <mxGeometry x="150" y="690" width="30" height="30" as="geometry" />
        </mxCell>
        <mxCell id="nEFYsT-crpDZ1YoU7cJc-172" value="8" style="ellipse;whiteSpace=wrap;html=1;aspect=fixed;fillColor=#dae8fc;strokeColor=#6c8ebf;" parent="1" vertex="1">
          <mxGeometry x="250" y="-190" width="30" height="30" as="geometry" />
        </mxCell>
        <mxCell id="nEFYsT-crpDZ1YoU7cJc-176" value="12" style="ellipse;whiteSpace=wrap;html=1;aspect=fixed;fillColor=#dae8fc;strokeColor=#6c8ebf;" parent="1" vertex="1">
          <mxGeometry x="350" y="60" width="30" height="30" as="geometry" />
        </mxCell>
        <mxCell id="7GoscIbdtp-0AamT8vIT-2" value="x2ap_gb_context_t&lt;div&gt;comm_info_init_params_t&lt;/div&gt;" style="rounded=1;whiteSpace=wrap;html=1;fillColor=#dae8fc;strokeColor=#6c8ebf;align=left;" parent="1" vertex="1">
          <mxGeometry x="-730" y="720" width="440" height="460" as="geometry" />
        </mxCell>
        <mxCell id="4SOa410NmmghQBkVjJKv-3" value="Local REQ connection to Peer" style="swimlane;whiteSpace=wrap;html=1;" parent="1" vertex="1">
          <mxGeometry x="870" y="620" width="820" height="580" as="geometry" />
        </mxCell>
        <mxCell id="NYHd2ZrHECOrhbtWjlzU-1" value="Peer REQ connection to Local" style="swimlane;whiteSpace=wrap;html=1;" vertex="1" parent="1">
          <mxGeometry x="950" y="-90" width="820" height="580" as="geometry" />
        </mxCell>
        <mxCell id="NYHd2ZrHECOrhbtWjlzU-12" value="" style="edgeStyle=orthogonalEdgeStyle;rounded=0;orthogonalLoop=1;jettySize=auto;html=1;" edge="1" parent="NYHd2ZrHECOrhbtWjlzU-1" source="NYHd2ZrHECOrhbtWjlzU-6" target="NYHd2ZrHECOrhbtWjlzU-7">
          <mxGeometry relative="1" as="geometry" />
        </mxCell>
        <mxCell id="NYHd2ZrHECOrhbtWjlzU-6" value="&lt;span style=&quot;font-size: 12px;&quot;&gt;x2ap_sctp_rcv_data&lt;/span&gt;" style="rounded=1;whiteSpace=wrap;html=1;" vertex="1" parent="NYHd2ZrHECOrhbtWjlzU-1">
          <mxGeometry x="40" y="50" width="120" height="60" as="geometry" />
        </mxCell>
        <mxCell id="NYHd2ZrHECOrhbtWjlzU-13" value="" style="edgeStyle=orthogonalEdgeStyle;rounded=0;orthogonalLoop=1;jettySize=auto;html=1;" edge="1" parent="NYHd2ZrHECOrhbtWjlzU-1" source="NYHd2ZrHECOrhbtWjlzU-7" target="NYHd2ZrHECOrhbtWjlzU-8">
          <mxGeometry relative="1" as="geometry" />
        </mxCell>
        <mxCell id="NYHd2ZrHECOrhbtWjlzU-7" value="&lt;span style=&quot;font-size: 12px;&quot;&gt;x2setup_sm_entry&lt;/span&gt;" style="rounded=1;whiteSpace=wrap;html=1;" vertex="1" parent="NYHd2ZrHECOrhbtWjlzU-1">
          <mxGeometry x="270" y="50" width="120" height="60" as="geometry" />
        </mxCell>
        <mxCell id="NYHd2ZrHECOrhbtWjlzU-14" value="" style="edgeStyle=orthogonalEdgeStyle;rounded=0;orthogonalLoop=1;jettySize=auto;html=1;" edge="1" parent="NYHd2ZrHECOrhbtWjlzU-1" source="NYHd2ZrHECOrhbtWjlzU-8" target="NYHd2ZrHECOrhbtWjlzU-9">
          <mxGeometry relative="1" as="geometry" />
        </mxCell>
        <mxCell id="NYHd2ZrHECOrhbtWjlzU-8" value="&lt;span style=&quot;font-size: 12px;&quot;&gt;x2setup_sm&lt;/span&gt;&lt;div&gt;&lt;span style=&quot;font-size: 12px;&quot;&gt;[X2_SETUP_IDLE_ST][X2_SETUP_REQ_EV]&lt;/span&gt;&lt;/div&gt;" style="rounded=1;whiteSpace=wrap;html=1;" vertex="1" parent="NYHd2ZrHECOrhbtWjlzU-1">
          <mxGeometry x="570" y="55" width="160" height="50" as="geometry" />
        </mxCell>
        <mxCell id="NYHd2ZrHECOrhbtWjlzU-18" style="edgeStyle=orthogonalEdgeStyle;rounded=0;orthogonalLoop=1;jettySize=auto;html=1;entryX=0.5;entryY=0;entryDx=0;entryDy=0;" edge="1" parent="NYHd2ZrHECOrhbtWjlzU-1" source="NYHd2ZrHECOrhbtWjlzU-9" target="NYHd2ZrHECOrhbtWjlzU-15">
          <mxGeometry relative="1" as="geometry" />
        </mxCell>
        <mxCell id="NYHd2ZrHECOrhbtWjlzU-9" value="&lt;span style=&quot;font-size: 12px;&quot;&gt;x2setup_req_idle_hdl&lt;/span&gt;" style="rounded=1;whiteSpace=wrap;html=1;" vertex="1" parent="NYHd2ZrHECOrhbtWjlzU-1">
          <mxGeometry x="590" y="150" width="120" height="60" as="geometry" />
        </mxCell>
        <mxCell id="NYHd2ZrHECOrhbtWjlzU-11" value="x2ap_update_cell_info_for_req" style="swimlane;whiteSpace=wrap;html=1;" vertex="1" parent="NYHd2ZrHECOrhbtWjlzU-1">
          <mxGeometry x="70" y="280" width="200" height="200" as="geometry" />
        </mxCell>
        <mxCell id="NYHd2ZrHECOrhbtWjlzU-19" style="edgeStyle=orthogonalEdgeStyle;rounded=0;orthogonalLoop=1;jettySize=auto;html=1;entryX=0.5;entryY=0;entryDx=0;entryDy=0;" edge="1" parent="NYHd2ZrHECOrhbtWjlzU-1" source="NYHd2ZrHECOrhbtWjlzU-15" target="NYHd2ZrHECOrhbtWjlzU-11">
          <mxGeometry relative="1" as="geometry" />
        </mxCell>
        <mxCell id="NYHd2ZrHECOrhbtWjlzU-15" value="x2_setup_req_evt_hdl" style="swimlane;whiteSpace=wrap;html=1;startSize=23;" vertex="1" parent="NYHd2ZrHECOrhbtWjlzU-1">
          <mxGeometry x="550" y="280" width="200" height="200" as="geometry" />
        </mxCell>
        <mxCell id="NYHd2ZrHECOrhbtWjlzU-20" value="&lt;span style=&quot;font-size: 12px;&quot;&gt;x2ap_build_x2setup_resp&lt;/span&gt;" style="rounded=1;whiteSpace=wrap;html=1;" vertex="1" parent="NYHd2ZrHECOrhbtWjlzU-15">
          <mxGeometry x="25" y="40" width="150" height="40" as="geometry" />
        </mxCell>
        <mxCell id="NYHd2ZrHECOrhbtWjlzU-22" style="edgeStyle=orthogonalEdgeStyle;rounded=0;orthogonalLoop=1;jettySize=auto;html=1;" edge="1" parent="1" source="NYHd2ZrHECOrhbtWjlzU-5" target="NYHd2ZrHECOrhbtWjlzU-6">
          <mxGeometry relative="1" as="geometry" />
        </mxCell>
        <mxCell id="NYHd2ZrHECOrhbtWjlzU-5" value="Peer eNB" style="shape=cylinder3;whiteSpace=wrap;html=1;boundedLbl=1;backgroundOutline=1;size=15;" vertex="1" parent="1">
          <mxGeometry x="1020" y="-290" width="60" height="80" as="geometry" />
        </mxCell>
        <mxCell id="NYHd2ZrHECOrhbtWjlzU-23" style="edgeStyle=orthogonalEdgeStyle;rounded=0;orthogonalLoop=1;jettySize=auto;html=1;entryX=1;entryY=0.5;entryDx=0;entryDy=0;entryPerimeter=0;" edge="1" parent="1" source="NYHd2ZrHECOrhbtWjlzU-20" target="NYHd2ZrHECOrhbtWjlzU-5">
          <mxGeometry relative="1" as="geometry">
            <Array as="points">
              <mxPoint x="1860" y="250" />
              <mxPoint x="1860" y="-250" />
            </Array>
          </mxGeometry>
        </mxCell>
        <mxCell id="NYHd2ZrHECOrhbtWjlzU-24" value="SETUP_RESP (eNB, Group, Cell, NC of each Cell)" style="edgeLabel;html=1;align=center;verticalAlign=middle;resizable=0;points=[];" vertex="1" connectable="0" parent="NYHd2ZrHECOrhbtWjlzU-23">
          <mxGeometry x="0.4152" y="2" relative="1" as="geometry">
            <mxPoint as="offset" />
          </mxGeometry>
        </mxCell>
      </root>
    </mxGraphModel>
  </diagram>
  <diagram id="iK-zFaJnKlHpPGUMkbT-" name="NR">
    <mxGraphModel dx="1639" dy="891" grid="1" gridSize="10" guides="1" tooltips="1" connect="1" arrows="1" fold="1" page="1" pageScale="1" pageWidth="850" pageHeight="1100" math="0" shadow="0">
      <root>
        <mxCell id="0" />
        <mxCell id="1" parent="0" />
      </root>
    </mxGraphModel>
  </diagram>
</mxfile>
